<svg xmlns="http://www.w3.org/2000/svg" width="220" height="22.959" viewBox="0 0 220 22.959">
  <g id="Group_92" data-name="Group 92" transform="translate(-645 -19.134)">
    <g id="Group_91" data-name="Group 91" transform="translate(455.159 -237.84)">
      <path id="Path_613" data-name="Path 613" d="M207.967,264.981h-.075a27.841,27.841,0,0,0-2.756-4.669,7.679,7.679,0,0,0-6.16-2.563,6.761,6.761,0,0,0-5.816,2.678,10.517,10.517,0,0,0-1.991,6.583,15.335,15.335,0,0,0,.956,5.434,10.868,10.868,0,0,0,2.985,4.361,7.014,7.014,0,0,0,4.745,1.761,8.744,8.744,0,0,0,6.773-3.368l.574.383a10.716,10.716,0,0,1-9.068,4.324,9.363,9.363,0,0,1-7.5-3.252,12.054,12.054,0,0,1-2.793-8.151,11.5,11.5,0,0,1,2.984-8.226,10.576,10.576,0,0,1,8.075-3.215,15.366,15.366,0,0,1,3.558.65,14.871,14.871,0,0,0,3.559.612c.153,0,.88-.612,1.071-.5Z" transform="translate(2 0.028)" fill="#161615"/>
      <path id="Path_614" data-name="Path 614" d="M214.068,276.69a10.366,10.366,0,0,1-3.521-7.958,11.073,11.073,0,0,1,3.521-8.265,11.918,11.918,0,0,1,16.722.037,10.791,10.791,0,0,1,3.674,8.113,10.437,10.437,0,0,1-3.674,8,12.262,12.262,0,0,1-8.379,3.291A12.066,12.066,0,0,1,214.068,276.69Zm14.388-15.917a7.419,7.419,0,0,0-6.237-3.138c-5.55,0-7.96,6.39-7.96,11.059a15.173,15.173,0,0,0,.8,4.936,9.557,9.557,0,0,0,2.678,4.056,6.734,6.734,0,0,0,4.592,1.683,6.617,6.617,0,0,0,4.707-1.876,12.971,12.971,0,0,0,3.827-9.6A11.427,11.427,0,0,0,228.456,260.773Z" transform="translate(8.247 0.028)" fill="#161615"/>
      <path id="Path_615" data-name="Path 615" d="M253.6,274.179c-.689,2.641-1.109,4.362-1.262,5.242-.421-.115-3.253-.191-6.581-.23H235.081v-.459c1.951,0,2.946-.115,3.443-.612.422-.69.537-1.532.5-3.483v-1.071l.038-12.933c0-1.149-.191-1.876-.537-2.144a4.681,4.681,0,0,0-2.3-.536V257.5h9.222v.421c-.344,0-1.415.076-1.607.076a3.154,3.154,0,0,0-1.072.191c-.65.306-.995.995-.956,2.754q0,1.264-.115,5.281c-.076,2.641-.076,4.86-.038,6.659a38.02,38.02,0,0,0,.574,5.2,5.15,5.15,0,0,0,1.76.268h4.133c2.909,0,4.248-1.3,5.281-4.171Z" transform="translate(16.077 0.167)" fill="#161615"/>
      <path id="Path_616" data-name="Path 616" d="M267.525,279.192H255.816v-.421c.727,0,1.875-.038,2.22,0a7.333,7.333,0,0,0,1.3-.191c.728-.344.8-1.264.8-3.75V260.48c0-1.377-.422-2.028-1.111-2.3a3.172,3.172,0,0,0-1.224-.23c-.268,0-1.224-.038-1.53-.038V257.5h9.6q13.661,0,13.66,10.676C279.54,275.518,274.911,279.192,267.525,279.192Zm-1.3-21.084a25.753,25.753,0,0,0-2.832.191,16.772,16.772,0,0,0-.5,4.707v11.671a13.858,13.858,0,0,0,.421,3.674c1.8.115,3.138.153,4.056.153,2.947,0,5.128-.956,6.5-2.909a12.581,12.581,0,0,0,2.105-7.576C275.982,261.4,272.729,258.108,266.224,258.108Z" transform="translate(21.695 0.167)" fill="#161615"/>
      <path id="Path_617" data-name="Path 617" d="M288.177,269.4l-.04,6.39c0,1.608.268,2.3.8,2.641a3.368,3.368,0,0,0,1.148.268c.268,0,1.377.076,1.8.076v.421H281.48v-.421c.459,0,1.455-.076,1.723-.076a3.5,3.5,0,0,0,1.186-.191c.689-.268,1.033-1.033.995-2.947V260.52c0-2.258-.8-2.526-3.062-2.564H281.9V257.5h8.228a15.657,15.657,0,0,1,6.2.956c2.028.727,3.137,2.41,3.137,4.975C299.464,269.587,292.539,269.626,288.177,269.4Zm6.352-9.911a5.635,5.635,0,0,0-3.942-1.454,16.3,16.3,0,0,0-2.219.191c-.116,1.568-.191,3.022-.191,4.286v6.237a16.984,16.984,0,0,0,2.028.115c3.4,0,5.931-2.067,5.931-5.587A4.835,4.835,0,0,0,294.529,259.485Z" transform="translate(28.878 0.167)" fill="#161615"/>
      <path id="Path_618" data-name="Path 618" d="M319.4,274.179c-.689,2.641-1.108,4.362-1.262,5.242-.421-.115-3.252-.191-6.581-.23H300.881v-.459c1.951,0,2.947-.115,3.444-.612.421-.69.536-1.532.5-3.483v-1.071l.038-12.933c0-1.149-.191-1.876-.536-2.144a4.692,4.692,0,0,0-2.3-.536V257.5h9.222v.421c-.344,0-1.415.076-1.607.076a3.154,3.154,0,0,0-1.072.191c-.65.306-.993.995-.956,2.754q0,1.264-.115,5.281c-.077,2.641-.077,4.86-.037,6.659a37.618,37.618,0,0,0,.574,5.2,5.14,5.14,0,0,0,1.76.268h4.132c2.909,0,4.248-1.3,5.281-4.171Z" transform="translate(37.078 0.167)" fill="#161615"/>
      <path id="Path_619" data-name="Path 619" d="M342.164,279.359H333.21v-.421c.153,0,1.071-.038,1.415-.077.689-.115,1.377-.421,1.377-1.3a5.535,5.535,0,0,0-.344-1.838c-.421-1.339-1.262-3.137-1.53-3.94l-3.636-.077-4.17.077c-.115.266-.269.765-.537,1.415l-.534,1.53a9.807,9.807,0,0,0-.537,2.947c0,.687.383.879.728,1.148a3.173,3.173,0,0,0,.993.115h.958v.421h-7.577v-.421a3.6,3.6,0,0,0,3.483-1.951,15.875,15.875,0,0,0,.995-1.952,27.143,27.143,0,0,0,.958-2.678l4.093-12.514c-.23-.689,0-.574-.612-.956a25.627,25.627,0,0,0,2.678-1.913l6.428,17.64.46,1.377a10.345,10.345,0,0,0,.421,1.109l.383.652c.612.8,1.186.765,3.06,1.148Zm-12.244-18.6L326.628,270.9c1.417.04,2.717.076,3.827.076.8,0,1.952-.037,3.368-.076Z" transform="translate(44.121)" fill="#161615"/>
      <path id="Path_620" data-name="Path 620" d="M361.3,257.5v.421h-.574a3.074,3.074,0,0,0-1.073.115,1.754,1.754,0,0,0-1.3.8,38.879,38.879,0,0,0-3.826,6.275c-1.417,2.794-2.144,5.051-2.144,6.773l-.038,3.98a3.315,3.315,0,0,0,.5,2.373,5.3,5.3,0,0,0,2.564.5v.459h-9.184v-.421a7.389,7.389,0,0,0,2.641-.421c.5-.306.726-1.148.726-2.564v-4.4a6.743,6.743,0,0,0-.534-2.334,17.627,17.627,0,0,0-.956-2.142c-.269-.536-.766-1.379-1.455-2.488l-1.186-1.913-.727-1.3a7.445,7.445,0,0,0-1.264-1.991c-.726-.918-1.683-1.224-3.52-1.3V257.5H349.2v.459c-1.569.077-2.334.459-2.334,1.109a5.749,5.749,0,0,0,.689,1.914c.459.956.956,1.875,1.454,2.754.537.88,1.148,1.836,1.8,2.947s1.071,1.76,1.186,1.951c.23-.574.727-1.607,1.53-3.1s1.493-2.869,2.105-4.132a7.921,7.921,0,0,0,.956-2.335c0-1.339-1.492-1.109-2.335-1.109V257.5Z" transform="translate(48.545 0.167)" fill="#161615"/>
    </g>
  </g>
</svg>
